<?xml version="1.0" encoding="utf-8"?>
<!-- Generator: Adobe Illustrator 22.0.1, SVG Export Plug-In . SVG Version: 6.00 Build 0)  -->
<svg version="1.1" id="Layer_1" xmlns="http://www.w3.org/2000/svg" xmlns:xlink="http://www.w3.org/1999/xlink" x="0px" y="0px"
	 viewBox="0 0 300 100" style="enable-background:new 0 0 300 100;" xml:space="preserve">
<style type="text/css">
	.st0{fill:url(#SVGID_1_);}
	.st1{fill:url(#SVGID_2_);}
	.st2{fill:url(#SVGID_3_);}
	.st3{fill:url(#SVGID_4_);}
	.st4{fill:url(#SVGID_5_);}
	.st5{fill:url(#SVGID_6_);}
</style>
<g>
	<linearGradient id="SVGID_1_" gradientUnits="userSpaceOnUse" x1="48.0262" y1="17.6667" x2="48.0262" y2="170.3333">
		<stop  offset="0" style="stop-color:#ACD1EA"/>
		<stop  offset="1" style="stop-color:#EBEEF3"/>
	</linearGradient>
	<path class="st0" d="M33.4,76.3c0-13.8,14.1-41.6,21.4-49C65.9,28.5,75.5,30,78.2,30c3.9,0,12.2-9.3,12.2-12.7c0-1-0.2-1.4-0.7-1.4
		c-0.4,0,0.1,0.4-0.7,1.1c-1.8,1.8-17.1,2.5-32.1,2.7c-2.6-1.3-5.3-2.2-5.7-2.2h-0.4c-2.2,0-3.2,0-5.5,2.1l-0.2,0.2h-15
		c-9.3,0-19,1.4-23.3,5.7c-0.8,0.8-1.3,2.3-1.3,4.2c0,5.8,4.1,14.8,10.8,14.8c14.6,0,17.3-9.2,17.3-9.9c0-0.4-0.2-0.7-0.4-0.7
		c-0.1,0-0.2,0.1-0.2,0.3c0,2.3-8.6,5.3-15.6,5.3c-4.7,0-8.6-1.4-8.6-5.2c0-6.5,10.1-8.5,22.7-8.5c2.9,0,6.1,0.1,9.2,0.3
		c-6.4,10.6-15.1,30.3-15.9,42.2v0.4c0,4.5,5,14,8,14c0.5,0,1.4-1,1.4-1.6c0-0.1-0.1-0.2-0.1-0.3C33.5,80,33.4,78.7,33.4,76.3z"/>
	<linearGradient id="SVGID_2_" gradientUnits="userSpaceOnUse" x1="64.6573" y1="17.6667" x2="64.6573" y2="170.3333">
		<stop  offset="0" style="stop-color:#ACD1EA"/>
		<stop  offset="1" style="stop-color:#EBEEF3"/>
	</linearGradient>
	<path class="st1" d="M80.4,45.8c0-2.2-4.9-4.1-7-4.1c-1.5,0-3.4,1.6-3.8,5.8c-2.2,2.2-6.1,8.5-8.8,13.6c2.8-6.2,6.5-12,6.5-12.8
		c0-1.8-5.6-4.9-8.2-4.9c-0.4,0-1,0.4-1,1.3c0,1.1-9.1,16.9-9.1,21.3c0,4,5.6,6.6,7,6.6c0.8,0,1.9-0.3,1.9-1.3v-0.5
		c0.9-4.4,8.3-16.8,11.5-20.7c0.1,6.3,3.1,7.8,4.9,7.8c1.8,0,2.5-1.3,2.5-1.5c0-0.3-0.1-0.7-0.4-0.7s-0.4,1-1.1,1
		c-0.2,0-1.1-0.4-1.1-1.6C74.1,50,80.4,47.6,80.4,45.8z"/>
	<linearGradient id="SVGID_3_" gradientUnits="userSpaceOnUse" x1="101.4368" y1="17.6667" x2="101.4368" y2="170.3333">
		<stop  offset="0" style="stop-color:#ACD1EA"/>
		<stop  offset="1" style="stop-color:#EBEEF3"/>
	</linearGradient>
	<path class="st2" d="M120.3,58.8c-1.6,0-4.1,0.9-7.2,2.3c2.3-5.5,3.7-10,3.7-11c0-1.8-5.5-5.2-8.2-5.2c-0.3,0-0.9,0.2-1.2,0.8
		c-2.6,3.4-13.6,22.1-15.5,22.1c-0.1,0-0.2-0.1-0.2-0.2c0-3.6,7.6-15.3,7.6-19.3c0-1.8-5.5-4.8-8.2-4.8c-0.4,0-1,0.4-1,1.3
		c0,2.7-8,15.8-8,20.7c0,4,5.6,7,7.6,7c3.5,0,12-13.9,15-19.1c-1.6,4.6-4,10.6-6.8,16.2c-9.4,6.2-17.9,13.2-17.9,15.6
		c0,2.8,3.2,4,7.4,4c10.1,0,18.8-13.7,24-24.9c2.9-1.3,5.4-2,7.2-2c2.1,0,2.2,1.1,2.2,2v0.2c0,0.1,0.1,0.2,0.2,0.2
		c0.6,0,1.7-2.2,1.7-4C122.8,59.1,121.6,58.8,120.3,58.8z M84.2,86.1c-0.9,0-1.7-0.2-1.7-0.9c0-1.4,6.2-6.8,13.7-11.9
		C92.5,80.4,88.2,86.1,84.2,86.1z"/>
	<linearGradient id="SVGID_4_" gradientUnits="userSpaceOnUse" x1="159.1988" y1="17.6667" x2="159.1988" y2="170.3333">
		<stop  offset="0" style="stop-color:#ACD1EA"/>
		<stop  offset="1" style="stop-color:#EBEEF3"/>
	</linearGradient>
	<path class="st3" d="M164.7,55.5c-0.1,0-0.2,0.1-0.2,0.2c0,0.2,0.2,0.5,0.2,0.8c0,4.4-5.6,14.1-13.3,14.1c-2.1,0-4.2-2.3-4.2-6.1
		c0-11.2,13-30.9,21.5-31c-1.6,2.9-2.8,5.9-2.8,7.3c0,2.3,1.8,3.7,4.1,3.7c0.2,0,0.4-0.1,0.4-0.3c0-3.6,10.8-11.2,10.8-12.4
		c0-2.4-2.5-6.5-5.8-6.5c-0.8,0-2.3,1.5-3.8,3.7c-2.8-1.5-7-2.2-12.2-2.2c-13.5,0-22.1,23.7-22.1,32.1c0,9.5,8.3,15.8,14.7,15.8
		c6.9,0,16.6-9.2,16.6-14.9C168.5,57.8,165.2,55.5,164.7,55.5z"/>
	<linearGradient id="SVGID_5_" gradientUnits="userSpaceOnUse" x1="206.0189" y1="17.6667" x2="206.0189" y2="170.3333">
		<stop  offset="0" style="stop-color:#ACD1EA"/>
		<stop  offset="1" style="stop-color:#EBEEF3"/>
	</linearGradient>
	<path class="st4" d="M235,37.6c1.7,0,3.1,0.4,4,1.3c0.3,0.3,0.4,0.5,0.4,0.7c0,0.3-0.2,0.5-0.2,0.7c0,0.2,0.2,0.4,0.5,0.4
		c0.3,0,2.8-2.4,2.8-3.8c0-1.9-2.8-2.5-4.1-2.5c-3.2,0-7.6,1.7-13.6,3.4c0.8-1.8,1.3-3.2,1.3-4.1c0-1.8-5.3-5.8-7.9-5.8
		c-0.4,0-1,0.4-1,1.3c0,0.5-2.5,5.3-5.4,11.3c-2.9,0.4-6.1,0.6-9.5,0.6c-1.3,0-1.5-0.4-1.5-0.8V40c0-0.1,0-0.2-0.1-0.2
		c-0.5,0-0.7,1.4-0.7,1.8c0,1,0.7,2.4,2.3,2.4c2.6,0,5.4-0.3,8.2-0.8c-2.9,6.3-5.9,13.5-6.9,18.8c-1.6,2.6-3.5,5.5-4.4,5.5
		c-0.4,0-1-0.4-1-2.2c0-3.2,3.1-9,3.1-10.7c0-1.1-4.3-4.9-7-4.9c-0.2,0-0.5,0.1-0.7,0.2c0.1-0.2,0.1-0.4,0.1-0.6
		c0-2.2-5-7.3-8.7-7.3c-5,0-15.3,14.2-15.3,21.6c0,4.8,6.8,6.6,8.2,6.6c0.5,0,1.3-0.5,2.1-1.3c2.6-2.6,8.9-12.1,9.8-12.1
		c0,0-1.3,4-1.3,6.5c0,4.9,5.9,7.1,10.1,7.1c1.3,0,3.1-2.3,4.8-4.8c0.4,3.7,5.6,6.2,7,6.2c0.5,0,1.3-1,1.3-2c0-8.8,8.1-21.9,12.2-30
		C228.1,38.6,232.1,37.6,235,37.6z M178.6,67.8c-0.2,0-0.3-0.2-0.3-0.5c0-2.9,6.7-16.4,13-16.4c0.5,0,1,0,1.3-0.1
		C188.2,54.4,179,67.8,178.6,67.8z"/>
	<linearGradient id="SVGID_6_" gradientUnits="userSpaceOnUse" x1="256.5254" y1="17.6667" x2="256.5254" y2="170.3333">
		<stop  offset="0" style="stop-color:#ACD1EA"/>
		<stop  offset="1" style="stop-color:#EBEEF3"/>
	</linearGradient>
	<path class="st5" d="M279.5,40.3c-1.2,0-1.6,0.4-1.6,0.7c0,0.4,0.4,0.7,0.8,0.7c0.1,0,0.3-0.1,0.4-0.2c0.2-0.2,0.6-0.4,1-0.4
		c1.9,0,5.2,2.7,5.2,12.3c0,13.7-9.7,21.3-14.7,21.3c-1.7,0-2.9-0.9-2.9-2.8c0-8.6,7.4-19,7.4-23.6c0-2.3-4.4-6.5-7.7-6.5
		c-5,0-15.2,20.4-15.6,20.4c0,0-0.1-0.1-0.1-0.2c0-3.5,13.8-26.3,13.8-27.5c0-1.9-3.7-7.1-7-7.1c-1.5,0-12.1,21-15.5,31.2
		c-1.9,3.5-5.9,9.7-12,9.7c-2.2,0-3-1.6-3-3.7c0-5,4.7-13.7,9.8-15.9c-1,2.1-1.7,4.1-1.7,4.6c0,1.4,1.5,1.9,2,1.9
		c0.2,0,0.4-0.1,0.4-0.3c0-1.3,7.1-10.9,7.1-11.2c0-0.7-1.1-2.2-2.5-2.2c-0.8,0-2,1.6-3.2,3.5c-1.5-1.9-4.4-3.9-7.9-3.9
		c-4.1,0-12.6,13-12.6,21c0,5.6,8.3,8.3,11,8.3c5.1,0,9.1-3.8,11.5-7.2c0.1,4.4,6.2,6.8,7.7,6.8c0.8,0,2-0.8,2-2.2
		c0-2.9,10.9-22.4,13.7-22.4c0.1,0,0.2,0.1,0.2,0.2c0,1.7-6.9,13.2-6.9,21.8c0,3.2,3.7,9.8,10.2,9.8c10.9,0,24.9-16.2,24.9-28.5
		C293.7,43.8,282.4,40.3,279.5,40.3z"/>
</g>
</svg>
