<?xml version="1.0" encoding="utf-8"?>
<!-- Generator: Adobe Illustrator 22.0.1, SVG Export Plug-In . SVG Version: 6.00 Build 0)  -->
<svg version="1.1" baseProfile="basic" id="Layer_1"
	 xmlns="http://www.w3.org/2000/svg" xmlns:xlink="http://www.w3.org/1999/xlink" x="0px" y="0px" viewBox="0 0 100 100"
	 xml:space="preserve">
<style type="text/css">
	.st0{fill:#EEEDED;}
	.st1{fill:#343434;}
	.st2{fill:#DA910F;}
	.st3{fill:#C99E62;}
	.st4{fill:#FFFFFF;}
	.st5{fill:#535F90;}
	.st6{fill:none;}
</style>
<rect x="-19.1" y="-13.3" class="st0" width="122.9" height="103.6"/>
<path class="st1" d="M103.8,91.4H-19.1c-0.6,0-1.1-0.5-1.1-1.1V-13.3c0-0.6,0.5-1.1,1.1-1.1h122.9c0.6,0,1.1,0.5,1.1,1.1V90.3
	C104.9,90.9,104.4,91.4,103.8,91.4z M-18,89.2h120.7V-12.2H-18V89.2z"/>
<path class="st2" d="M30.4,80.4c0,0-7.5-7.8-2.3-11.9c5.2-4,2.9-3.7,10.9,0s13.6,5.8,2.5,8.9L30.4,80.4z"/>
<polyline class="st3" points="-19.1,113.3 -19.1,74.6 106.4,74.6 106.4,113.3 "/>
<path class="st1" d="M106.4,114.4c-0.6,0-1.1-0.5-1.1-1.1V75.7H-18v37.6c0,0.6-0.5,1.1-1.1,1.1c-0.6,0-1.1-0.5-1.1-1.1V74.6
	c0-0.6,0.5-1.1,1.1-1.1h125.5c0.6,0,1.1,0.5,1.1,1.1v38.7C107.5,113.9,107,114.4,106.4,114.4z"/>
<polygon class="st0" points="54.2,92.1 -6.3,92.1 20.2,77.4 80.7,77.4 "/>
<path class="st2" d="M78.6,58.6c0,0,7.2,13.8,2.5,19.4c-4.7,5.6-12.7,4.8-18.9,4c-6.2-0.8-5.7-0.9-6.7-0.4c-1,0.5-4,2.3-5.3,1.7
	c-1.3-0.5-3.2-2.1-2.9-4.7c0.4-2.5,2.4-11.1,11.1-10c2.1,0.3,9.7,1.6,11.7,1.1"/>
<path class="st1" d="M50.7,84.5c-0.4,0-0.7-0.1-1-0.2c-2-0.8-3.9-3-3.5-5.9c0.8-5.7,4.5-12,12.4-11c0.4,0.1,1.1,0.2,1.9,0.3
	c2.6,0.4,8,1.2,9.4,0.8c0.6-0.2,1.2,0.2,1.4,0.8c0.2,0.6-0.2,1.2-0.8,1.4c-1.7,0.4-5.8-0.1-10.3-0.8c-0.8-0.1-1.4-0.2-1.8-0.3
	c-8.1-1-9.7,7.4-9.9,9.1c-0.3,2.4,2.1,3.4,2.2,3.5c0.1,0.1,0.9,0.2,4.2-1.6l0.2-0.1c1-0.5,1.3-0.5,4-0.1c0.8,0.1,1.9,0.3,3.3,0.4
	c6.8,0.9,13.8,1.3,17.9-3.6c3.5-4.1-0.7-14.5-2.6-18.1c-0.3-0.5-0.1-1.2,0.5-1.5c0.5-0.3,1.2-0.1,1.5,0.5c0.3,0.6,7.5,14.5,2.3,20.6
	C76.6,85,67.4,83.8,62,83.1c-1.4-0.2-2.5-0.3-3.3-0.4c-2.3-0.3-2.3-0.3-2.6-0.1l-0.2,0.1C54,83.7,52.2,84.5,50.7,84.5z"/>
<path class="st2" d="M39,18.6c-0.7-2.5-2.8-4.5-5.5-4.8c-3.5-0.4-6.7,2.1-7.2,5.7c-0.3,2.2,0.6,4.3,2.1,5.6"/>
<path class="st1" d="M28.5,26.3c-0.3,0-0.5-0.1-0.7-0.3c-1.8-1.7-2.8-4.1-2.5-6.6c0.5-4.2,4.3-7.2,8.4-6.7c3.1,0.4,5.6,2.6,6.4,5.6
	c0.2,0.6-0.2,1.2-0.8,1.4c-0.6,0.2-1.2-0.2-1.4-0.8c-0.6-2.1-2.3-3.7-4.5-4c-2.9-0.3-5.6,1.8-5.9,4.7c-0.2,1.7,0.4,3.5,1.8,4.7
	c0.5,0.4,0.5,1.1,0.1,1.6C29.1,26.1,28.8,26.3,28.5,26.3z"/>
<path class="st2" d="M82,49c-1.9,16-17.2,27.4-34.2,25.3c-17-2-29.2-16.7-27.3-32.7c1.9-16,17.2-27.4,34.2-25.3
	C71.7,18.4,83.9,33,82,49"/>
<path class="st1" d="M51.7,75.7c-1.3,0-2.7-0.1-4-0.2C30,73.4,17.3,58.2,19.3,41.6c2-16.6,17.9-28.4,35.5-26.3
	c17.6,2.1,30.3,17.3,28.3,33.9C81.3,64.5,67.6,75.7,51.7,75.7z M50.7,17.2c-14.8,0-27.5,10.4-29.2,24.6c-1.8,15.4,10,29.5,26.3,31.4
	c16.4,1.9,31.2-9,33-24.4L82,49l-1.1-0.1c1.8-15.4-10-29.5-26.3-31.4C53.3,17.3,52,17.2,50.7,17.2z"/>
<path class="st1" d="M40.7,45.9c-0.1,0.7-0.7,1.2-1.4,1.1l-6.2-0.7c-0.7-0.1-1.2-0.7-1.1-1.4s0.7-1.2,1.4-1.1l6.2,0.7
	C40.2,44.5,40.7,45.2,40.7,45.9"/>
<path class="st1" d="M67.5,49.1c-0.1,0.7-0.7,1.2-1.4,1.1l-6.2-0.7c-0.7-0.1-1.2-0.7-1.1-1.4c0.1-0.7,0.7-1.2,1.4-1.1l6.2,0.7
	C67.1,47.7,67.6,48.4,67.5,49.1"/>
<path class="st1" d="M39.1,52.7c-0.2,1.7-1.7,2.9-3.4,2.7C34,55.2,32.8,53.7,33,52c0.2-1.7,1.7-2.9,3.4-2.7
	C38.1,49.5,39.3,51,39.1,52.7"/>
<path class="st1" d="M65.4,55.9c-0.2,1.7-1.7,2.9-3.4,2.7c-1.7-0.2-2.9-1.7-2.7-3.4c0.2-1.7,1.7-2.9,3.4-2.7
	C64.4,52.6,65.6,54.2,65.4,55.9"/>
<path class="st4" d="M51,60.7c-1.6-0.2-3,0.5-3.7,1.6c-0.4-1.3-1.6-2.3-3.1-2.5c-2-0.2-3.8,1-4.1,2.9c-0.2,1.8,1.2,3.5,3.3,3.7
	c1.5,0.2,2.9-0.5,3.6-1.6c0.4,1.3,1.6,2.3,3.2,2.5c2.1,0.2,3.9-1,4.1-2.9C54.6,62.6,53.1,60.9,51,60.7"/>
<path class="st1" d="M50.8,68c-0.2,0-0.4,0-0.6,0c-1.4-0.2-2.5-0.9-3.3-1.9c-0.9,0.8-2.2,1.2-3.6,1.1c-1.2-0.1-2.2-0.7-2.9-1.5
	c-0.8-0.9-1.1-1.9-1-3c0.1-1.1,0.7-2.1,1.7-2.7c0.9-0.6,2.1-0.9,3.2-0.8c1.3,0.2,2.5,0.9,3.2,1.9c0.9-0.8,2.3-1.2,3.6-1.1l0,0
	c1.2,0.1,2.2,0.7,3,1.5c0.8,0.9,1.1,1.9,1,3c-0.1,1.1-0.7,2.1-1.7,2.7C52.6,67.8,51.7,68,50.8,68z M47.4,63.6l0.3,1
	c0.3,1,1.4,1.8,2.6,2c0.8,0.1,1.6-0.1,2.2-0.5c0.6-0.4,1-1,1.1-1.7c0.1-0.7-0.1-1.3-0.6-1.9c-0.5-0.6-1.2-0.9-2.1-1
	c-1.2-0.1-2.4,0.4-3,1.3L47.4,63.6z M43.7,60.6c-0.7,0-1.3,0.2-1.8,0.6c-0.6,0.4-1,1-1,1.7c-0.1,0.7,0.1,1.3,0.6,1.9
	c0.5,0.6,1.2,0.9,2,1c1.2,0.1,2.3-0.4,2.9-1.3l0.5-0.9l-0.3-1c-0.3-1-1.3-1.8-2.5-1.9C44,60.6,43.8,60.6,43.7,60.6z"/>
<path class="st1" d="M51.5,60.7c-0.2,1.4-2,2.3-4.2,2c-2.1-0.3-3.7-1.6-3.6-3c0.2-1.4,2-2.3,4.2-2C50.1,58,51.7,59.3,51.5,60.7"/>
<path class="st2" d="M76.7,33.2c2.2-1.1,3.8-3.3,4.1-5.9c0.5-4.2-2.5-8-6.6-8.5c-3.6-0.4-6.8,1.7-8,4.9"/>
<path class="st1" d="M76.7,34.3c-0.4,0-0.8-0.2-1-0.6c-0.3-0.5-0.1-1.2,0.5-1.5c1.9-1,3.2-2.9,3.5-5.1c0.2-1.7-0.3-3.4-1.3-4.8
	c-1.1-1.4-2.6-2.2-4.3-2.4c-3-0.4-5.8,1.4-6.8,4.2c-0.2,0.6-0.9,0.9-1.4,0.7c-0.6-0.2-0.9-0.9-0.7-1.4c1.4-3.8,5.2-6.1,9.2-5.7
	c2.3,0.3,4.4,1.4,5.8,3.3c1.4,1.8,2.1,4.1,1.8,6.5c-0.3,2.9-2.1,5.4-4.7,6.8C77,34.3,76.8,34.3,76.7,34.3z"/>
<path class="st2" d="M70,70.4c-2.1,0.5-9.5-1.5-11.6-1.8c-8.7-1.1-10.8,7.5-11.1,10c-0.4,2.5,1.4,4.6,2.9,4.7
	c1.9,0.1,4.2-1.5,5.3-1.7c3.2-0.6,6.6,0.4,6.7,0.4c0.8,0.1,1.6,0.2,2.4,0.3"/>
<path class="st1" d="M50.3,84.5c-0.1,0-0.2,0-0.2,0c-0.9,0-1.9-0.6-2.7-1.5c-1-1.2-1.5-2.8-1.2-4.4c0.8-5.7,4.5-12,12.4-11
	c0.7,0.1,1.9,0.3,3.2,0.6c2.5,0.5,6.8,1.4,8,1.2c0.6-0.1,1.2,0.2,1.3,0.8c0.1,0.6-0.2,1.2-0.8,1.3c-1.6,0.4-4.9-0.3-9-1.2
	c-1.3-0.3-2.4-0.5-3.1-0.6c-8.1-1-9.7,7.4-9.9,9.1c-0.2,1.4,0.5,2.3,0.7,2.7c0.4,0.5,0.8,0.7,1.1,0.7c1,0.1,2.2-0.5,3.2-1
	c0.7-0.3,1.3-0.6,1.8-0.7c2.9-0.6,5.9,0.1,7.1,0.4c0.7,0.1,1.5,0.2,2.3,0.3c0.6,0.1,1.1,0.6,1,1.2c-0.1,0.6-0.6,1.1-1.2,1
	c-0.9-0.1-1.7-0.2-2.4-0.3c0,0-0.1,0-0.2,0c-0.8-0.2-3.6-0.9-6.2-0.4c-0.2,0-0.8,0.3-1.3,0.5C53.2,83.8,51.8,84.5,50.3,84.5z"/>
<polygon class="st5" points="28.2,75.8 27.4,80.4 24.5,76.8 17.5,53.4 21.2,52.4 "/>
<path class="st1" d="M27.4,81.2c-0.2,0-0.4-0.1-0.6-0.3l-2.9-3.6c-0.1-0.1-0.1-0.2-0.1-0.3l-7-23.5c-0.1-0.2,0-0.4,0.1-0.6
	c0.1-0.2,0.3-0.3,0.5-0.4l3.7-1c0.4-0.1,0.8,0.1,0.9,0.5l7,23.5c0,0.1,0,0.2,0,0.3l-0.7,4.6c0,0.3-0.3,0.5-0.5,0.6
	C27.5,81.1,27.5,81.2,27.4,81.2z M25.1,76.5l1.8,2.2l0.5-2.8l-6.7-22.6l-2.2,0.6L25.1,76.5z"/>
<path class="st2" d="M15.6,73.4c-3.4-4.3-0.2-9.3,3.3-10.6s10.1-0.9,11.9,3c1.8,3.9,1.7,9.9-2.3,8.4c-4-1.4-6,1.1-6,1.1
	S18.5,77.2,15.6,73.4"/>
<path class="st1" d="M20.2,76.9c-1.7,0-3.8-0.6-5.5-2.8l0,0c-1.6-2-2.1-4.3-1.5-6.6c0.7-2.6,2.7-4.8,5.2-5.8c4-1.6,11.2-1,13.3,3.5
	c1.4,3,1.8,7.3,0.1,9.2c-0.5,0.6-1.7,1.4-3.7,0.7c-3.2-1.2-4.8,0.8-4.8,0.8c-0.1,0.1-0.2,0.2-0.4,0.3C22.3,76.6,21.3,76.9,20.2,76.9
	z M16.4,72.7c2.1,2.6,4.6,1.9,5.3,1.7c0.7-0.7,3.1-2.7,7.1-1.3c0.9,0.3,1.2,0,1.4-0.1c0.8-0.9,0.8-4.1-0.4-6.8
	c-1.5-3.2-7.3-3.6-10.5-2.4c-1.8,0.7-3.4,2.4-3.9,4.3C15.1,69.3,15,71,16.4,72.7L16.4,72.7z"/>
<path class="st1" d="M33.3,89.1H10.6c-0.3,0-0.6-0.2-0.6-0.6c0-0.3,0.2-0.6,0.6-0.6h22.7c0.3,0,0.6,0.2,0.6,0.6
	C33.9,88.8,33.6,89.1,33.3,89.1z M36.8,86.6H14.1c-0.3,0-0.6-0.2-0.6-0.6c0-0.3,0.2-0.6,0.6-0.6h22.7c0.3,0,0.6,0.2,0.6,0.6
	C37.3,86.4,37.1,86.6,36.8,86.6z M40.2,84.1H17.6c-0.3,0-0.6-0.2-0.6-0.6c0-0.3,0.2-0.6,0.6-0.6h22.7c0.3,0,0.6,0.2,0.6,0.6
	C40.8,83.9,40.6,84.1,40.2,84.1z M43.7,81.7H27.9c-0.3,0-0.6-0.2-0.6-0.6c0-0.3,0.2-0.6,0.6-0.6h15.8c0.3,0,0.6,0.2,0.6,0.6
	C44.3,81.4,44,81.7,43.7,81.7z"/>
<path class="st6" d="M1.7,51.6c0,24.5,18.1,44.8,41.6,48.3c2.1,4.5,4.8,10.4,5.3,11.3c0.8,1.6,3.2,1.5,3.9,0
	c0.4-0.8,3.1-6.7,5.2-11.3c23.5-3.5,41.6-23.8,41.6-48.3c0-27-21.9-48.8-48.8-48.8S1.7,24.6,1.7,51.6"/>
<rect x="0.4" y="1.5" class="st6" width="100.2" height="112.2"/>
</svg>
